<svg
    xmlns="http://www.w3.org/2000/svg"
    viewBox="0 0 24 24"
    id="vector">
    <path
        id="path"
        d="M 20 5 L 16.83 5 L 15 3 L 9 3 L 7.17 5 L 4 5 C 2.9 5 2 5.9 2 7 L 2 19 C 2 20.1 2.9 21 4 21 L 20 21 C 21.1 21 22 20.1 22 19 L 22 7 C 22 5.9 21.1 5 20 5 Z M 12 18 C 9.24 18 7 15.76 7 13 L 5 13 L 7.5 10.5 L 10 13 L 8 13 C 8 15.21 9.79 17 12 17 C 12.58 17 13.13 16.87 13.62 16.65 L 14.36 17.39 C 13.65 17.76 12.86 18 12 18 Z M 16.5 15.5 L 14 13 L 16 13 C 16 10.79 14.21 9 12 9 C 11.42 9 10.87 9.13 10.38 9.35 L 9.64 8.62 C 10.35 8.24 11.14 8 12 8 C 14.76 8 17 10.24 17 13 L 19 13 L 16.5 15.5 Z"
        fill="#23588a"/>
</svg>
